<svg xmlns="http://www.w3.org/2000/svg" width="300" height="50">
  <!-- f -->
  <g transform="translate(0, 0)">
    <rect x="0" y="0" width="10" height="10" fill="green" />
    <rect x="10" y="0" width="10" height="10" fill="green" />
    <rect x="20" y="0" width="10" height="10" fill="green" />
    <rect x="30" y="0" width="10" height="10" fill="green" />
    <rect x="0" y="10" width="10" height="10" fill="green" />
    <rect x="0" y="20" width="10" height="10" fill="green" />
    <rect x="10" y="20" width="10" height="10" fill="green" />
    <rect x="20" y="20" width="10" height="10" fill="green" />
    <rect x="0" y="30" width="10" height="10" fill="green" />
    <rect x="0" y="40" width="10" height="10" fill="green" />
  </g>
  <!-- r -->
  <g transform="translate(60, 0)">
    <rect x="0" y="0" width="10" height="10" fill="green" />
    <rect x="10" y="0" width="10" height="10" fill="green" />
    <rect x="20" y="0" width="10" height="10" fill="green" />
    <rect x="30" y="0" width="10" height="10" fill="green" />
    <rect x="0" y="10" width="10" height="10" fill="green" />
    <rect x="30" y="10" width="10" height="10" fill="green" />
    <rect x="0" y="20" width="10" height="10" fill="green" />
    <rect x="10" y="20" width="10" height="10" fill="green" />
    <rect x="20" y="20" width="10" height="10" fill="green" />
    <rect x="20" y="30" width="10" height="10" fill="green" />
    <rect x="30" y="20" width="10" height="10" fill="green" />
    <rect x="0" y="30" width="10" height="10" fill="green" />

    <rect x="30" y="40" width="10" height="10" fill="green" />
    <rect x="0" y="40" width="10" height="10" fill="green" />
  </g>
  <!-- 0 -->
  <g transform="translate(120, 0)">
    <rect x="0" y="0" width="10" height="10" fill="green" />
    <rect x="10" y="0" width="10" height="10" fill="green" />
    <rect x="20" y="0" width="10" height="10" fill="green" />
    <rect x="30" y="0" width="10" height="10" fill="green" />
    <rect x="0" y="10" width="10" height="10" fill="green" />
    <rect x="30" y="10" width="10" height="10" fill="green" />
    <rect x="0" y="20" width="10" height="10" fill="green" />
    <rect x="30" y="20" width="10" height="10" fill="green" />
    <rect x="0" y="30" width="10" height="10" fill="green" />
    <rect x="30" y="30" width="10" height="10" fill="green" />
    <rect x="0" y="40" width="10" height="10" fill="green" />
    <rect x="10" y="40" width="10" height="10" fill="green" />
    <rect x="20" y="40" width="10" height="10" fill="green" />
    <rect x="30" y="40" width="10" height="10" fill="green" />
  </g>
  <!-- g -->
  <g transform="translate(180, 0)">
    <rect x="0" y="0" width="10" height="10" fill="green" />
    <rect x="10" y="0" width="10" height="10" fill="green" />
    <rect x="20" y="0" width="10" height="10" fill="green" />
    <rect x="30" y="0" width="10" height="10" fill="green" />

    <rect x="0" y="10" width="10" height="10" fill="green" />
    <rect x="0" y="20" width="10" height="10" fill="green" />

    <rect x="20" y="20" width="10" height="10" fill="green" />
    <rect x="30" y="20" width="10" height="10" fill="green" />
    <rect x="40" y="20" width="10" height="10" fill="green" />

    <rect x="0" y="30" width="10" height="10" fill="green" />
    <rect x="30" y="30" width="10" height="10" fill="green" />

    <rect x="0" y="40" width="10" height="10" fill="green" />
    <rect x="10" y="40" width="10" height="10" fill="green" />
    <rect x="20" y="40" width="10" height="10" fill="green" />
    <rect x="30" y="40" width="10" height="10" fill="green" />
  </g>
  <!-- a -->
  <g transform="translate(240, 0)">
    <rect x="10" y="0" width="10" height="10" fill="green" />
    <rect x="20" y="0" width="10" height="10" fill="green" />
    <rect x="30" y="0" width="10" height="10" fill="green" />
    <rect x="0" y="10" width="10" height="10" fill="green" />
    <rect x="40" y="10" width="10" height="10" fill="green" />
    <rect x="0" y="20" width="10" height="10" fill="green" />
    <rect x="10" y="20" width="10" height="10" fill="green" />
    <rect x="20" y="20" width="10" height="10" fill="green" />
    <rect x="30" y="20" width="10" height="10" fill="green" />
    <rect x="40" y="20" width="10" height="10" fill="green" />
    <rect x="0" y="30" width="10" height="10" fill="green" />
    <rect x="40" y="30" width="10" height="10" fill="green" />
    <rect x="0" y="40" width="10" height="10" fill="green" />
    <rect x="40" y="40" width="10" height="10" fill="green" />

  </g>
</svg>
